<svg xmlns="http://www.w3.org/2000/svg" viewBox="0 0 64 64"><radialGradient id="jUSv56w43tV131KS5vdVHa" cx="32" cy="34" r="32" gradientTransform="matrix(1 0 0 -1 0 66)" gradientUnits="userSpaceOnUse"><stop offset="0" stop-color="#9ceeff"></stop><stop offset=".642" stop-color="#c5f5ff"></stop><stop offset="1" stop-color="#dcf9ff"></stop></radialGradient><linearGradient id="jUSv56w43tV131KS5vdVHb" x1="32" x2="32" y1="-1.873" y2="71.552" gradientTransform="matrix(1 0 0 -1 0 66)" gradientUnits="userSpaceOnUse"><stop offset="0" stop-color="#005ce2"></stop><stop offset=".278" stop-color="#0080e8"></stop><stop offset=".569" stop-color="#009ced"></stop><stop offset=".82" stop-color="#00b0f1"></stop><stop offset="1" stop-color="#00b5f2"></stop></linearGradient><path fill="url(#jUSv56w43tV131KS5vdVHb)" d="M18,8h28c5.523,0,10,4.477,10,10v28c0,5.523-4.477,10-10,10H18c-5.523,0-10-4.477-10-10V18	C8,12.477,12.477,8,18,8z"></path><path fill="#fff" d="M24.53,30.18l-10.29,12C14.09,41.82,14,41.42,14,41V23c0-0.54,0.14-1.04,0.38-1.47L24.53,30.18z"></path><path fill="#fff" d="M30.59,32.71l-14.67-12.5C16.25,20.07,16.62,20,17,20h30c0.4,0,0.78,0.08,1.13,0.23L34.41,32.65	C33.37,33.59,31.66,33.62,30.59,32.71z"></path><path fill="#fff" d="M38.27,31.85l10.12,11.81C47.98,43.88,47.5,44,47,44H17c-0.5,0-0.98-0.12-1.39-0.34l10.44-12.19	l3.24,2.76c0.89,0.75,2.01,1.17,3.18,1.17c1.21,0,2.38-0.45,3.28-1.27L38.27,31.85z"></path><path fill="#fff" d="M50,23v18c0,0.42-0.09,0.82-0.24,1.18L39.75,30.51l9.89-8.94C49.87,21.99,50,22.48,50,23z"></path><linearGradient id="jUSv56w43tV131KS5vdVHc" x1="16.502" x2="16.502" y1="3.541" y2="58.639" gradientTransform="matrix(1 0 0 -1 0 66)" gradientUnits="userSpaceOnUse"><stop offset="0" stop-color="#005ce2"></stop><stop offset=".278" stop-color="#0080e8"></stop><stop offset=".569" stop-color="#009ced"></stop><stop offset=".82" stop-color="#00b0f1"></stop><stop offset="1" stop-color="#00b5f2"></stop></linearGradient><path fill="url(#jUSv56w43tV131KS5vdVHc)" d="M24.99,10.24c0.15,1.5-1.02,2.76-2.49,2.76H15c-0.55,0-1.05,0.22-1.41,0.59	C13.22,13.95,13,14.45,13,15c0,1.1,0.9,2,2,2h1.5c0.83,0,1.5,0.67,1.5,1.5S17.33,20,16.5,20H8v-2c0-5.52,4.48-10,10-10h4.36	C23.67,8,24.86,8.94,24.99,10.24z"></path><linearGradient id="jUSv56w43tV131KS5vdVHd" x1="47.998" x2="47.998" y1="5.823" y2="63.776" gradientTransform="matrix(1 0 0 -1 0 66)" gradientUnits="userSpaceOnUse"><stop offset="0" stop-color="#005ce2"></stop><stop offset=".278" stop-color="#0080e8"></stop><stop offset=".569" stop-color="#009ced"></stop><stop offset=".82" stop-color="#00b0f1"></stop><stop offset="1" stop-color="#00b5f2"></stop></linearGradient><path fill="url(#jUSv56w43tV131KS5vdVHd)" d="M40.01,53.76C39.86,52.26,41.03,51,42.5,51H47c0.55,0,1.05-0.22,1.41-0.59	C48.78,50.05,49,49.55,49,49c0-1.1-0.9-2-2-2h-1.5c-0.83,0-1.5-0.67-1.5-1.5s0.67-1.5,1.5-1.5H56v2c0,5.52-4.48,10-10,10h-3.36	C41.33,56,40.14,55.06,40.01,53.76z"></path></svg>